<svg xmlns="http://www.w3.org/2000/svg" width="40" height="40" viewBox="0 0 40 40">
  <g id="add-icon" data-name="Group 13" transform="translate(-1017 -193)">
    <circle id="add-bg" data-name="Ellipse 3" cx="20" cy="20" r="20" transform="translate(1017 193)" fill="#203969"/>
    <path id="add" d="M25.6,16c0,.885-.077,1.6-.962,1.6H17.6v7.038c0,.883-.715.962-1.6.962s-1.6-.078-1.6-.962V17.6H7.362c-.883,0-.962-.715-.962-1.6s.078-1.6.962-1.6H14.4V7.362c0-.885.715-.962,1.6-.962s1.6.077,1.6.962V14.4h7.038C25.523,14.4,25.6,15.115,25.6,16Z" transform="translate(1020.6 196.601)" fill="#fdfdfd"/>
  </g>
</svg>
