<svg xmlns="http://www.w3.org/2000/svg" width="68" height="68" viewBox="0 0 68 68">
  <g id="Group_11" data-name="Group 11" transform="translate(-52 -195)">
    <circle id="Ellipse_1" data-name="Ellipse 1" cx="34" cy="34" r="34" transform="translate(52 195)" fill="#dd9a4c"/>
    <path id="list" d="M23.04,14.4H13.76c-.883,0-.96.715-.96,1.6s.077,1.6.96,1.6h9.28c.883,0,.96-.715.96-1.6S23.923,14.4,23.04,14.4Zm3.2,8H13.76c-.883,0-.96.715-.96,1.6s.077,1.6.96,1.6H26.24c.883,0,.96-.715.96-1.6S27.123,22.4,26.24,22.4ZM13.76,9.6H26.24c.883,0,.96-.715.96-1.6s-.077-1.6-.96-1.6H13.76c-.883,0-.96.715-.96,1.6S12.877,9.6,13.76,9.6ZM8.64,14.4H5.76c-.883,0-.96.715-.96,1.6s.077,1.6.96,1.6H8.64c.883,0,.96-.715.96-1.6S9.523,14.4,8.64,14.4Zm0,8H5.76c-.883,0-.96.715-.96,1.6s.077,1.6.96,1.6H8.64c.883,0,.96-.715.96-1.6S9.523,22.4,8.64,22.4Zm0-16H5.76c-.883,0-.96.715-.96,1.6s.077,1.6.96,1.6H8.64c.883,0,.96-.715.96-1.6S9.523,6.4,8.64,6.4Z" transform="translate(70.2 212.6)" fill="#fff"/>
  </g>
</svg>
