<svg xmlns="http://www.w3.org/2000/svg" width="40" height="40" viewBox="0 0 40 40">
  <g id="Group_19" data-name="Group 19" transform="translate(-1066 -854)">
    <g id="Group_17" data-name="Group 17" transform="translate(49 661)">
      <circle id="Ellipse_3" data-name="Ellipse 3" cx="20" cy="20" r="20" transform="translate(1017 193)" fill="#b51f1f"/>
    </g>
    <path id="cross" d="M25.409,26.481a2.244,2.244,0,0,1-3.175,0l-4.96-5.669-4.96,5.667A2.245,2.245,0,1,1,9.138,23.3L14.3,17.41l-5.162-5.9a2.245,2.245,0,1,1,3.175-3.175l4.962,5.671,4.96-5.671a2.245,2.245,0,0,1,3.175,3.175l-5.16,5.9,5.16,5.894A2.247,2.247,0,0,1,25.409,26.481Z" transform="translate(1068.521 856.32)" fill="#fff"/>
  </g>
</svg>
