<svg xmlns="http://www.w3.org/2000/svg" width="40" height="40" viewBox="0 0 40 40">
  <g id="Group_18" data-name="Group 18" transform="translate(-994 -854)">
    <g id="Group_16" data-name="Group 16" transform="translate(-23 661)">
      <circle id="Ellipse_3" data-name="Ellipse 3" cx="20" cy="20" r="20" transform="translate(1017 193)" fill="#7788c1"/>
    </g>
    <path id="edit" d="M19.562,3.256C18.007,1.7,16.839,1.933,16.839,1.933L3.009,15.762,1.92,20.9l5.136-1.089L20.886,5.981s.233-1.168-1.324-2.725ZM6.751,19.191,5,19.568a4,4,0,0,0-.744-1,4.035,4.035,0,0,0-1-.745l.377-1.75.507-.505a3.281,3.281,0,0,1,2.028,1.1,3.285,3.285,0,0,1,1.1,2.028l-.508.5Z" transform="translate(1003.08 863.079)" fill="#fff"/>
  </g>
</svg>
