<svg xmlns="http://www.w3.org/2000/svg" width="68" height="68" viewBox="0 0 68 68">
  <g id="trash-icon" data-name="Group 15" transform="translate(-52 -358)">
    <circle id="trash-bg" data-name="Ellipse 2" cx="34" cy="34" r="34" transform="translate(52 358)" fill="#9d2243"/>
    <path id="trashcan" d="M8,26a3,3,0,0,0,3,3H21a3,3,0,0,0,3-3l2-16H6ZM19,13h2V26H19Zm-4,0h2V26H15Zm-4,0h2V26H11ZM25.5,6H19s-.448-2-1-2H14c-.553,0-1,2-1,2H6.5A1.5,1.5,0,0,0,5,7.5V9H27V7.5A1.5,1.5,0,0,0,25.5,6Z" transform="translate(70 375.999)" fill="#fff"/>
  </g>
</svg>
